<svg width="664" height="665" viewBox="0 0 664 665" fill="none" xmlns="http://www.w3.org/2000/svg">
<g clip-path="url(#clip0_1_2)">
<path opacity="0.2" d="M663.459 504.085V333.877H663.999V331.998H663.459V161.791C663.449 120.049 647.205 79.9474 618.163 49.9658V46.8775H663.459V44.9858H619.475L661.709 2.52078L660.422 1.23396L618.201 43.699V2.1476H616.323V44.9858H613.131C583.581 16.7383 544.283 0.962883 503.404 0.937988H160.042C119.18 0.976116 79.9032 16.7505 50.3661 44.9858H47.162V2.1476H45.2961V43.6604L3.0755 1.19535L1.78868 2.48217L44.0092 44.9472H2.67659V46.826H45.2961V49.9658C16.25 79.9451 0.00579511 120.048 0 161.791V504.085C0.00579511 545.827 16.25 585.93 45.2961 615.909V619.049H2.67659V620.928H43.9706L1.75008 663.393L3.0369 664.68L45.2575 622.215V663.728H47.1234V620.889H50.3275C79.8742 649.134 119.167 664.909 160.042 664.937H503.404C544.27 664.902 583.552 649.128 613.093 620.889H616.284V663.728H618.163V622.215L660.383 664.68L661.67 663.393L619.437 620.928H663.999V619.049H618.163V615.909C647.198 585.923 663.441 545.825 663.459 504.085Z" fill="url(#paint0_radial_1_2)"/>
<mask id="mask0_1_2" style="mask-type:alpha" maskUnits="userSpaceOnUse" x="-13" y="0" width="592" height="665">
<path d="M578.988 0H-12.7969V664.938H578.988V0Z" fill="url(#paint1_linear_1_2)"/>
</mask>
<g mask="url(#mask0_1_2)">
<!-- Docker Icon -->
<path d="M82.8643 584.71C82.8643 579.582 82.8643 577.019 83.8779 575.067C84.7321 573.423 86.0729 572.082 87.7173 571.228C89.6687 570.214 92.2324 570.214 97.3597 570.214H147.148C152.276 570.214 154.839 570.214 156.791 571.228C158.435 572.082 159.776 573.423 160.63 575.067C161.644 577.019 161.644 579.582 161.644 584.71V634.499C161.644 639.626 161.644 642.19 160.63 644.141C159.776 645.785 158.435 647.126 156.791 647.98C154.839 648.994 152.276 648.994 147.148 648.994H97.3597C92.2324 648.994 89.6687 648.994 87.7173 647.98C86.0729 647.126 84.7321 645.785 83.8779 644.141C82.8643 642.19 82.8643 639.626 82.8643 634.499V584.71Z" fill="white" fill-opacity="0.1"/>
<path d="M147.148 569.745H97.3597H97.3374C94.7926 569.745 92.8539 569.745 91.3087 569.874C89.7534 570.003 88.5549 570.264 87.5012 570.812C85.7711 571.711 84.3605 573.121 83.4618 574.851C82.9144 575.905 82.6528 577.104 82.5236 578.659C82.3953 580.204 82.3953 582.143 82.3953 584.687V584.71V634.499V634.521C82.3953 637.066 82.3953 639.004 82.5236 640.55C82.6528 642.105 82.9144 643.303 83.4618 644.357C84.3605 646.087 85.7711 647.498 87.5012 648.396C88.5549 648.944 89.7534 649.205 91.3087 649.335C92.8538 649.463 94.7924 649.463 97.3371 649.463H97.3597H147.148H147.171C149.716 649.463 151.654 649.463 153.199 649.335C154.755 649.205 155.953 648.944 157.007 648.396C158.737 647.498 160.148 646.087 161.046 644.357C161.594 643.303 161.855 642.105 161.985 640.55C162.113 639.004 162.113 637.066 162.113 634.521V634.499V584.71V584.687C162.113 582.143 162.113 580.204 161.985 578.659C161.855 577.104 161.594 575.905 161.046 574.851C160.148 573.121 158.737 571.711 157.007 570.812C155.953 570.264 154.755 570.003 153.199 569.874C151.654 569.745 149.716 569.745 147.171 569.745H147.148Z" stroke="white" stroke-opacity="0.2" stroke-width="0.937853"/>
<path d="M122.253 592.409C120.015 592.409 118.198 594.226 118.198 596.464C118.198 598.702 120.015 600.519 122.253 600.519C124.491 600.519 126.308 598.702 126.308 596.464C126.308 594.226 124.491 592.409 122.253 592.409ZM103.475 596.464C103.475 594.226 105.292 592.409 107.53 592.409C109.768 592.409 111.585 594.226 111.585 596.464C111.585 598.702 109.768 600.519 107.53 600.519C105.292 600.519 103.475 598.702 103.475 596.464ZM141.03 596.464C141.03 594.226 142.847 592.409 145.085 592.409C147.323 592.409 149.14 594.226 149.14 596.464C149.14 598.702 147.323 600.519 145.085 600.519C142.847 600.519 141.03 598.702 141.03 596.464ZM126.308 612.631C126.308 614.869 124.491 616.686 122.253 616.686C120.015 616.686 118.198 614.869 118.198 612.631C118.198 610.393 120.015 608.576 122.253 608.576C124.491 608.576 126.308 610.393 126.308 612.631ZM137.013 609.847C137.013 607.609 138.83 605.792 141.068 605.792C143.306 605.792 145.123 607.609 145.123 609.847C145.123 612.085 143.306 613.902 141.068 613.902C138.83 613.902 137.013 612.085 137.013 609.847ZM107.494 609.847C107.494 607.609 109.311 605.792 111.549 605.792C113.787 605.792 115.604 607.609 115.604 609.847C115.604 612.085 113.787 613.902 111.549 613.902C109.311 613.902 107.494 612.085 107.494 609.847ZM111.585 622.042C111.585 619.804 113.402 617.987 115.64 617.987C117.878 617.987 119.695 619.804 119.695 622.042C119.695 624.28 117.878 626.097 115.64 626.097C113.402 626.097 111.585 624.28 111.585 622.042ZM128.92 622.042C128.92 619.804 130.737 617.987 132.975 617.987C135.213 617.987 137.03 619.804 137.03 622.042C137.03 624.28 135.213 626.097 132.975 626.097C130.737 626.097 128.92 624.28 128.92 622.042Z" fill="white"/>
<text x="122" y="627" font-family="Arial" font-size="14" font-weight="bold" fill="white">Docker</text>

<!-- Kubernetes Icon -->
<path d="M359.185 66.2432H309.479C301.709 66.2432 295.411 72.5415 295.411 80.311V130.017C295.411 137.787 301.709 144.085 309.479 144.085H359.185C366.955 144.085 373.253 137.787 373.253 130.017V80.311C373.253 72.5415 366.955 66.2432 359.185 66.2432Z" fill="white" fill-opacity="0.1"/>
<path d="M359.185 65.7742H309.479C301.451 65.7742 294.942 72.2825 294.942 80.311V130.017C294.942 138.046 301.451 144.554 309.479 144.554H359.185C367.214 144.554 373.722 138.046 373.722 130.017V80.311C373.722 72.2826 367.214 65.7742 359.185 65.7742Z" stroke="white" stroke-opacity="0.2" stroke-width="0.937853"/>
<path d="M320 95L340 105L340 125L320 135L300 125L300 105L320 95Z" fill="#326CE5"/>
<path d="M310 115L320 120L330 115L340 130L320 140L300 130L310 115Z" fill="#326CE5"/>
<path d="M290 120L310 130L330 120L350 140L320 155L290 140L290 120Z" fill="#326CE5"/>
<text x="320" y="155" font-family="Arial" font-size="12" fill="white" text-anchor="middle">K8s</text>

<!-- Python Icon -->
<path d="M194.812 25.6665H146.044C137.756 25.6665 131.038 32.3847 131.038 40.6721V89.4405C131.038 97.7279 137.756 104.446 146.044 104.446H194.812C203.099 104.446 209.818 97.7279 209.818 89.4405V40.6721C209.818 32.3847 203.099 25.6665 194.812 25.6665Z" fill="white" fill-opacity="0.1"/>
<path d="M194.812 25.1976H146.044C137.497 25.1976 130.569 32.1258 130.569 40.6722V89.4405C130.569 97.9869 137.497 104.915 146.044 104.915H194.812C203.358 104.915 210.287 97.9869 210.287 89.4405V40.6722C210.287 32.1258 203.358 25.1976 194.812 25.1976Z" stroke="white" stroke-opacity="0.2" stroke-width="0.937853"/>
<path d="M170.251 75.8998C186.823 76.1697 200.337 71.5352 200.434 65.5484C200.532 59.5616 187.176 54.4895 170.604 54.2196C154.031 53.9497 140.518 58.5842 140.42 64.571C140.323 70.5579 153.678 75.6299 170.251 75.8998Z" stroke="#3776AB" stroke-width="2.73905"/>
<path d="M160.416 70.3146C168.481 84.0287 179.501 92.7918 185.03 89.8876C190.558 86.9834 188.502 73.5117 180.437 59.7977C172.372 46.0837 161.352 37.3206 155.823 40.2248C150.295 43.1289 152.351 56.6006 160.416 70.3146Z" stroke="#FFD43B" stroke-width="2.73905"/>
<text x="170" y="92" font-family="Arial" font-size="10" fill="white" text-anchor="middle">Python</text>

<!-- AWS Icon -->
<path d="M480.475 333.679L429.834 333.099C422.065 333.01 415.695 339.236 415.606 347.005L415.026 397.646C414.937 405.415 421.163 411.785 428.932 411.874L479.572 412.454C487.341 412.543 493.711 406.317 493.8 398.548L494.38 347.907C494.469 340.138 488.244 333.768 480.475 333.679Z" fill="white" fill-opacity="0.1"/>
<path d="M480.48 333.211L429.839 332.63C421.811 332.539 415.228 338.972 415.137 347L414.557 397.641C414.465 405.668 420.898 412.251 428.926 412.343L479.567 412.923C487.594 413.015 494.177 406.581 494.269 398.554L494.849 347.913C494.941 339.885 488.507 333.302 480.48 333.211Z" stroke="white" stroke-opacity="0.2" stroke-width="0.937853"/>
<path d="M455 365L470 375L455 395L440 375L455 365Z" fill="#FF9900"/>
<text x="455" y="400" font-family="Arial" font-size="14" font-weight="bold" fill="white" text-anchor="middle">AWS</text>

<!-- Terraform Icon -->
<path d="M275.124 166H224.48C216.71 166 210.412 172.298 210.412 180.068V230.712C210.412 238.481 216.71 244.78 224.48 244.78H275.124C282.893 244.78 289.192 238.481 289.192 230.712V180.068C289.192 172.298 282.893 166 275.124 166Z" fill="white" fill-opacity="0.1"/>
<path d="M275.124 165.531H224.48C216.451 165.531 209.943 172.039 209.943 180.068V230.712C209.943 238.74 216.451 245.249 224.48 245.249H275.124C283.152 245.249 289.661 238.74 289.661 230.712V180.068C289.661 172.039 283.152 165.531 275.124 165.531Z" stroke="white" stroke-opacity="0.2" stroke-width="0.937853"/>
<path d="M240 205L260 190L250 205L260 220L240 205Z" fill="#623CE4"/>
<text x="250" y="235" font-family="Arial" font-size="12" font-weight="bold" fill="white" text-anchor="middle">TF</text>

<!-- Jenkins Icon -->
<path d="M425.332 216.795H374.688C366.918 216.795 360.62 223.093 360.62 230.863V281.507C360.62 289.276 366.918 295.575 374.688 295.575H425.332C433.101 295.575 439.4 289.276 439.4 281.507V230.863C439.4 223.093 433.101 216.795 425.332 216.795Z" fill="white" fill-opacity="0.1"/>
<path d="M425.332 216.326H374.688C366.659 216.326 360.151 222.834 360.151 230.863V281.507C360.151 289.535 366.659 296.043 374.688 296.043H425.332C433.36 296.043 439.869 289.535 439.869 281.507V230.863C439.869 222.834 433.36 216.326 425.332 216.326Z" stroke="white" stroke-opacity="0.2" stroke-width="0.937853"/>
<path d="M400 250L415 240L400 265L385 240L400 250Z" fill="#D24939"/>
<rect x="395" y="245" width="10" height="25" rx="2" fill="#D24939"/>
<text x="400" y="285" font-family="Arial" font-size="10" fill="white" text-anchor="middle">Jenkins</text>

<!-- Git Icon -->
<path d="M322.855 303.864H260.217C256.019 303.864 252.615 307.268 252.615 311.466V374.104C252.615 378.303 256.019 381.706 260.217 381.706H322.855C327.054 381.706 330.457 378.303 330.457 374.104V311.466C330.457 307.268 327.054 303.864 322.855 303.864Z" fill="white" fill-opacity="0.1"/>
<path d="M322.855 303.395H260.217C255.76 303.395 252.146 307.009 252.146 311.466V374.104C252.146 378.562 255.76 382.175 260.217 382.175H322.855C327.313 382.175 330.926 378.562 330.926 374.104V311.466C330.926 307.009 327.313 303.395 322.855 303.395Z" stroke="white" stroke-opacity="0.2" stroke-width="0.937853"/>
<path d="M300.517 365.852V373.454C301.748 374.093 303.253 374.564 304.926 374.883C306.598 375.202 308.422 375.354 310.247 375.354C312.071 375.354 313.744 375.187 315.416 374.838C317.088 374.488 318.457 373.91 319.673 373.165C320.904 372.359 321.954 371.341 322.562 369.972C323.17 368.604 323.641 367.084 323.641 365.107C323.641 363.724 323.428 362.523 323.018 361.458C322.607 360.394 322.014 359.482 321.193 358.722C320.418 357.916 319.521 357.201 318.457 356.593C317.392 355.985 316.176 355.347 314.808 354.769C313.804 354.358 312.983 353.963 312.071 353.568C311.281 353.173 310.597 352.777 310.095 352.382C309.532 351.971 309.107 351.546 308.803 351.105C308.498 350.649 308.346 350.147 308.346 349.585C308.346 349.068 308.482 348.596 308.757 348.171C309.032 347.745 309.411 347.395 309.897 347.091C310.384 346.787 310.992 346.559 311.722 346.392C312.436 346.225 313.227 346.149 314.154 346.149C314.793 346.149 315.462 346.196 316.131 346.291C316.83 346.387 317.545 346.535 318.259 346.732C318.974 346.93 319.673 347.173 320.388 347.477C321.057 347.781 321.68 348.131 322.212 348.526V341.381C321.057 340.94 319.779 340.605 318.411 340.393C317.043 340.18 315.522 340.073 313.698 340.073C311.874 340.073 310.201 340.271 308.529 340.651C306.856 341.031 305.488 341.639 304.272 342.475C303.04 343.296 302.143 344.3 301.383 345.668C300.669 346.945 300.319 348.405 300.319 350.229C300.319 352.51 300.973 354.486 302.295 356.006C303.603 357.679 305.64 358.895 308.225 360.111C309.274 360.537 310.201 360.963 311.113 361.373C312.026 361.784 312.786 362.21 313.394 362.65C314.048 363.091 314.565 363.578 314.914 364.095C315.294 364.612 315.492 365.22 315.492 365.919C315.492 366.406 315.373 366.862 315.142 367.287C314.911 367.713 314.549 368.078 314.063 368.382C313.576 368.686 312.983 368.929 312.239 369.112C311.524 369.279 310.718 369.37 309.654 369.37C307.982 369.37 306.309 369.081 304.789 368.504C303.116 367.926 301.596 367.059 300.228 365.919L300.517 365.852ZM287.746 347.152H297.476V340.919H270.262V347.152H279.992V374.974H287.746V347.152Z" fill="white"/>
<text x="292" y="355" font-family="Arial" font-size="10" fill="white" text-anchor="middle">Git</text>

<!-- Ansible Icon -->
<path d="M347.339 440.791H296.695C288.925 440.791 282.627 447.089 282.627 454.859V505.503C282.627 513.272 288.925 519.571 296.695 519.571H347.339C355.108 519.571 361.407 513.272 361.407 505.503V454.859C361.407 447.089 355.108 440.791 347.339 440.791Z" fill="white" fill-opacity="0.1"/>
<path d="M347.339 440.322H296.695C288.666 440.322 282.158 446.83 282.158 454.859V505.503C282.158 513.531 288.666 520.039 296.695 520.039H347.339C355.367 520.039 361.876 513.531 361.876 505.503V454.859C361.876 446.83 355.367 440.322 347.339 440.322Z" stroke="white" stroke-opacity="0.2" stroke-width="0.937853"/>
<path d="M322 470L335 460L322 490L309 460L322 470Z" fill="#EE0000"/>
<rect x="317" y="465" width="10" height="30" rx="1" fill="#EE0000"/>
<text x="322" y="515" font-family="Arial" font-size="10" fill="white" text-anchor="middle">Ansible</text>

<!-- Linux Icon -->
<path d="M194.468 416.407H143.824C136.054 416.407 129.756 422.705 129.756 430.475V481.119C129.756 488.888 136.054 495.187 143.824 495.187H194.468C202.237 495.187 208.536 488.888 208.536 481.119V430.475C208.536 422.705 202.237 416.407 194.468 416.407Z" fill="white" fill-opacity="0.1"/>
<path d="M194.468 415.938H143.824C135.795 415.938 129.287 422.446 129.287 430.475V481.119C129.287 489.147 135.795 495.655 143.824 495.655H194.468C202.496 495.655 209.005 489.147 209.005 481.119V430.475C209.005 422.446 202.496 415.938 194.468 415.938Z" stroke="white" stroke-opacity="0.2" stroke-width="0.937853"/>
<circle cx="169" cy="455" r="25" fill="#FCC624" stroke="#000" stroke-width="2"/>
<ellipse cx="162" cy="448" rx="4" ry="6" fill="#000"/>
<ellipse cx="176" cy="448" rx="4" ry="6" fill="#000"/>
<path d="M162 462 Q169 468 176 462" stroke="#000" stroke-width="2" fill="none" stroke-linecap="round"/>
<text x="169" y="500" font-family="Arial" font-size="10" fill="white" text-anchor="middle">Linux</text>

<!-- Bash Icon -->
<path d="M169.147 254.158H118.503C110.733 254.158 104.435 260.456 104.435 268.226V318.87C104.435 326.639 110.733 332.938 118.503 332.938H169.147C176.916 332.938 183.215 326.639 183.215 318.87V268.226C183.215 260.456 176.916 254.158 169.147 254.158Z" fill="white" fill-opacity="0.1"/>
<path d="M169.147 253.689H118.503C110.474 253.689 103.966 260.197 103.966 268.226V318.87C103.966 326.898 110.474 333.406 118.503 333.406H169.147C177.175 333.406 183.684 326.898 183.684 318.87V268.226C183.684 260.197 177.175 253.689 169.147 253.689Z" stroke="white" stroke-opacity="0.2" stroke-width="0.937853"/>
<rect x="130" y="268" width="68" height="40" rx="8" fill="#4EAA25" stroke="#000" stroke-width="2"/>
<text x="164" y="295" font-family="monospace" font-size="18" font-weight="bold" fill="#FFF" text-anchor="middle">$</text>
<text x="144" y="340" font-family="Arial" font-size="10" fill="white" text-anchor="middle">Bash</text>

<!-- VS Code Icon -->
<path d="M387.667 559.898H337.023C329.253 559.898 322.955 566.196 322.955 573.966V624.61C322.955 632.379 329.253 638.678 337.023 638.678H387.667C395.436 638.678 401.735 632.379 401.735 624.61V573.966C401.735 566.196 395.436 559.898 387.667 559.898Z" fill="white" fill-opacity="0.1"/>
<path d="M387.667 559.43H337.023C328.994 559.43 322.486 565.938 322.486 573.967V624.611C322.486 632.639 328.994 639.148 337.023 639.148H387.667C395.695 639.148 402.204 632.639 402.204 624.611V573.967C402.204 565.938 395.695 559.43 387.667 559.43Z" stroke="white" stroke-opacity="0.2" stroke-width="0.937853"/>
<path d="M336.09 568.339C335.523 568.339 335.1 568.801 335.151 569.366L339.933 623.014C339.984 623.579 340.472 624.166 341.019 624.318L361.315 629.953C361.862 630.105 362.756 630.105 363.303 629.953L383.661 624.309C384.208 624.157 384.697 623.571 384.747 623.006L389.538 569.366C389.589 568.801 389.165 568.339 388.598 568.339H336.09ZM362 590C364.761 590 367 592.239 367 595C367 597.761 364.761 600 362 600C359.239 600 357 597.761 357 595C357 592.239 359.239 590 362 590Z" fill="#007ACC"/>
<text x="362" y="625" font-family="Arial" font-size="10" fill="white" text-anchor="middle">VS Code</text>

<!-- Prometheus Icon -->
<circle cx="416" cy="220" r="30" fill="#E6522C" opacity="0.9"/>
<circle cx="416" cy="220" r="20" fill="#FFF" opacity="0.1"/>
<path d="M416 205L420 225L416 235L412 225Z" fill="#FFF"/>
<text x="416" y="260" font-family="Arial" font-size="9" fill="white" text-anchor="middle">Prometheus</text>

<!-- Grafana Icon -->
<rect x="415" y="570" width="50" height="50" rx="8" fill="#F46800" opacity="0.9"/>
<path d="M440 585L450 600L440 615L430 600Z" fill="#FFF"/>
<rect x="435" y="595" width="10" height="10" rx="2" fill="#F46800"/>
<text x="440" y="635" font-family="Arial" font-size="9" fill="white" text-anchor="middle">Grafana</text>

<!-- GitHub Actions Icon -->
<path d="M403.923 232H395.076V245.492C393.754 245.147 392.663 245.032 391.226 245.032C381.976 245.032 376 250.893 376 259.913C376 269.278 381.631 274.162 392.433 274.162C396.051 274.162 399.384 273.817 403.924 272.955V232H403.923ZM395.076 266.808C393.811 266.98 393.007 267.037 392.03 267.037C387.491 267.037 385.021 264.452 385.021 259.741C385.021 254.915 387.606 252.157 392.088 252.157C393.179 252.157 394.041 252.271 395.076 252.616V266.808Z" fill="white" fill-opacity="0.85"/>
<text x="390" y="285" font-family="Arial" font-size="8" fill="white" text-anchor="middle">Actions</text>
</g>
<defs>
<radialGradient id="paint0_radial_1_2" cx="0" cy="0" r="1" gradientUnits="userSpaceOnUse" gradientTransform="translate(332 332.938) rotate(90) scale(349.759)">
<stop stop-color="white"/>
<stop offset="1" stop-color="white" stop-opacity="0"/>
</radialGradient>
<linearGradient id="paint1_linear_1_2" x1="141.949" y1="-81.5932" x2="363.282" y2="699.638" gradientUnits="userSpaceOnUse">
<stop offset="0.416946"/>
<stop offset="0.880782" stop-opacity="0.02"/>
</linearGradient>
<clipPath id="clip0_1_2">
<rect width="664" height="665" fill="white"/>
</clipPath>
</defs>
</svg>
